<mxfile host="app.diagrams.net" agent="Mozilla/5.0 (Windows NT 10.0; Win64; x64) AppleWebKit/537.36 (KHTML, like Gecko) Chrome/137.0.0.0 Safari/537.36" version="27.1.4">
  <diagram id="C5RBs43oDa-KdzZeNtuy" name="Page-1">
    <mxGraphModel dx="1048" dy="664" grid="1" gridSize="10" guides="1" tooltips="1" connect="1" arrows="1" fold="1" page="1" pageScale="1" pageWidth="827" pageHeight="1169" math="0" shadow="0">
      <root>
        <mxCell id="WIyWlLk6GJQsqaUBKTNV-0" />
        <mxCell id="WIyWlLk6GJQsqaUBKTNV-1" parent="WIyWlLk6GJQsqaUBKTNV-0" />
        <mxCell id="WIyWlLk6GJQsqaUBKTNV-2" value="" style="rounded=0;html=1;jettySize=auto;orthogonalLoop=1;fontSize=11;endArrow=block;endFill=0;endSize=8;strokeWidth=1;shadow=0;labelBackgroundColor=none;edgeStyle=orthogonalEdgeStyle;" parent="WIyWlLk6GJQsqaUBKTNV-1" source="WIyWlLk6GJQsqaUBKTNV-3" target="WIyWlLk6GJQsqaUBKTNV-6" edge="1">
          <mxGeometry relative="1" as="geometry" />
        </mxCell>
        <mxCell id="WIyWlLk6GJQsqaUBKTNV-3" value="Lanzar juego" style="rounded=1;whiteSpace=wrap;html=1;fontSize=12;glass=0;strokeWidth=1;shadow=0;" parent="WIyWlLk6GJQsqaUBKTNV-1" vertex="1">
          <mxGeometry x="233.99" y="80" width="120" height="40" as="geometry" />
        </mxCell>
        <mxCell id="_oAQgHQ9doe4E5g8mVp9-7" style="edgeStyle=orthogonalEdgeStyle;rounded=0;orthogonalLoop=1;jettySize=auto;html=1;entryX=0.5;entryY=0;entryDx=0;entryDy=0;" parent="WIyWlLk6GJQsqaUBKTNV-1" source="WIyWlLk6GJQsqaUBKTNV-6" target="_oAQgHQ9doe4E5g8mVp9-2" edge="1">
          <mxGeometry relative="1" as="geometry">
            <Array as="points">
              <mxPoint x="294" y="280" />
              <mxPoint x="295" y="280" />
            </Array>
            <mxPoint x="338.99" y="300" as="targetPoint" />
          </mxGeometry>
        </mxCell>
        <mxCell id="vRXhc2d17sExE2w-US0Y-5" style="edgeStyle=orthogonalEdgeStyle;rounded=0;orthogonalLoop=1;jettySize=auto;html=1;entryX=0.5;entryY=0;entryDx=0;entryDy=0;" edge="1" parent="WIyWlLk6GJQsqaUBKTNV-1" source="WIyWlLk6GJQsqaUBKTNV-6" target="WIyWlLk6GJQsqaUBKTNV-7">
          <mxGeometry relative="1" as="geometry" />
        </mxCell>
        <mxCell id="WIyWlLk6GJQsqaUBKTNV-6" value="Existen Jugadores" style="rhombus;whiteSpace=wrap;html=1;shadow=0;fontFamily=Helvetica;fontSize=12;align=center;strokeWidth=1;spacing=6;spacingTop=-4;" parent="WIyWlLk6GJQsqaUBKTNV-1" vertex="1">
          <mxGeometry x="243.99" y="170" width="100" height="80" as="geometry" />
        </mxCell>
        <mxCell id="WIyWlLk6GJQsqaUBKTNV-7" value="Creación de nuevo Jugador" style="rounded=1;whiteSpace=wrap;html=1;fontSize=12;glass=0;strokeWidth=1;shadow=0;" parent="WIyWlLk6GJQsqaUBKTNV-1" vertex="1">
          <mxGeometry x="370" y="240" width="120" height="40" as="geometry" />
        </mxCell>
        <mxCell id="_oAQgHQ9doe4E5g8mVp9-1" style="edgeStyle=orthogonalEdgeStyle;rounded=0;orthogonalLoop=1;jettySize=auto;html=1;" parent="WIyWlLk6GJQsqaUBKTNV-1" target="WIyWlLk6GJQsqaUBKTNV-3" edge="1">
          <mxGeometry relative="1" as="geometry">
            <mxPoint x="293.99" y="50" as="sourcePoint" />
          </mxGeometry>
        </mxCell>
        <mxCell id="_oAQgHQ9doe4E5g8mVp9-0" value="Juego" style="ellipse;whiteSpace=wrap;html=1;aspect=fixed;" parent="WIyWlLk6GJQsqaUBKTNV-1" vertex="1">
          <mxGeometry x="275" y="20" width="40" height="40" as="geometry" />
        </mxCell>
        <mxCell id="_oAQgHQ9doe4E5g8mVp9-16" style="edgeStyle=orthogonalEdgeStyle;rounded=0;orthogonalLoop=1;jettySize=auto;html=1;" parent="WIyWlLk6GJQsqaUBKTNV-1" source="_oAQgHQ9doe4E5g8mVp9-2" target="_oAQgHQ9doe4E5g8mVp9-14" edge="1">
          <mxGeometry relative="1" as="geometry" />
        </mxCell>
        <mxCell id="_oAQgHQ9doe4E5g8mVp9-17" style="edgeStyle=orthogonalEdgeStyle;rounded=0;orthogonalLoop=1;jettySize=auto;html=1;" parent="WIyWlLk6GJQsqaUBKTNV-1" source="_oAQgHQ9doe4E5g8mVp9-2" target="_oAQgHQ9doe4E5g8mVp9-13" edge="1">
          <mxGeometry relative="1" as="geometry" />
        </mxCell>
        <mxCell id="vRXhc2d17sExE2w-US0Y-3" style="edgeStyle=orthogonalEdgeStyle;rounded=0;orthogonalLoop=1;jettySize=auto;html=1;entryX=0.5;entryY=1;entryDx=0;entryDy=0;" edge="1" parent="WIyWlLk6GJQsqaUBKTNV-1" source="_oAQgHQ9doe4E5g8mVp9-2" target="WIyWlLk6GJQsqaUBKTNV-7">
          <mxGeometry relative="1" as="geometry" />
        </mxCell>
        <mxCell id="_oAQgHQ9doe4E5g8mVp9-2" value="Mostrar menú" style="rounded=1;whiteSpace=wrap;html=1;" parent="WIyWlLk6GJQsqaUBKTNV-1" vertex="1">
          <mxGeometry x="235" y="300" width="120" height="40" as="geometry" />
        </mxCell>
        <mxCell id="_oAQgHQ9doe4E5g8mVp9-8" value="Si" style="text;html=1;align=center;verticalAlign=middle;whiteSpace=wrap;rounded=0;" parent="WIyWlLk6GJQsqaUBKTNV-1" vertex="1">
          <mxGeometry x="282.5" y="240" width="60" height="30" as="geometry" />
        </mxCell>
        <mxCell id="_oAQgHQ9doe4E5g8mVp9-9" value="No" style="text;html=1;align=center;verticalAlign=middle;whiteSpace=wrap;rounded=0;" parent="WIyWlLk6GJQsqaUBKTNV-1" vertex="1">
          <mxGeometry x="330" y="180" width="60" height="30" as="geometry" />
        </mxCell>
        <mxCell id="_oAQgHQ9doe4E5g8mVp9-20" style="edgeStyle=orthogonalEdgeStyle;rounded=0;orthogonalLoop=1;jettySize=auto;html=1;entryX=0.25;entryY=0;entryDx=0;entryDy=0;" parent="WIyWlLk6GJQsqaUBKTNV-1" source="_oAQgHQ9doe4E5g8mVp9-13" target="_oAQgHQ9doe4E5g8mVp9-2" edge="1">
          <mxGeometry relative="1" as="geometry">
            <Array as="points">
              <mxPoint x="265" y="250" />
            </Array>
          </mxGeometry>
        </mxCell>
        <mxCell id="_oAQgHQ9doe4E5g8mVp9-13" value="Mostrar top de Jugadores" style="rounded=1;whiteSpace=wrap;html=1;" parent="WIyWlLk6GJQsqaUBKTNV-1" vertex="1">
          <mxGeometry x="108.24" y="220" width="120" height="60" as="geometry" />
        </mxCell>
        <mxCell id="_oAQgHQ9doe4E5g8mVp9-22" style="edgeStyle=orthogonalEdgeStyle;rounded=0;orthogonalLoop=1;jettySize=auto;html=1;entryX=0.5;entryY=0;entryDx=0;entryDy=0;" parent="WIyWlLk6GJQsqaUBKTNV-1" source="_oAQgHQ9doe4E5g8mVp9-14" target="_oAQgHQ9doe4E5g8mVp9-21" edge="1">
          <mxGeometry relative="1" as="geometry" />
        </mxCell>
        <mxCell id="_oAQgHQ9doe4E5g8mVp9-14" value="Elección de Jugadores" style="rounded=1;whiteSpace=wrap;html=1;" parent="WIyWlLk6GJQsqaUBKTNV-1" vertex="1">
          <mxGeometry x="235" y="360" width="120" height="60" as="geometry" />
        </mxCell>
        <mxCell id="_oAQgHQ9doe4E5g8mVp9-24" style="edgeStyle=orthogonalEdgeStyle;rounded=0;orthogonalLoop=1;jettySize=auto;html=1;" parent="WIyWlLk6GJQsqaUBKTNV-1" source="_oAQgHQ9doe4E5g8mVp9-21" target="_oAQgHQ9doe4E5g8mVp9-23" edge="1">
          <mxGeometry relative="1" as="geometry" />
        </mxCell>
        <mxCell id="_oAQgHQ9doe4E5g8mVp9-21" value="Elección de Personaje" style="rounded=1;whiteSpace=wrap;html=1;" parent="WIyWlLk6GJQsqaUBKTNV-1" vertex="1">
          <mxGeometry x="235" y="440" width="120" height="60" as="geometry" />
        </mxCell>
        <mxCell id="_oAQgHQ9doe4E5g8mVp9-56" style="edgeStyle=orthogonalEdgeStyle;rounded=0;orthogonalLoop=1;jettySize=auto;html=1;entryX=0.5;entryY=0;entryDx=0;entryDy=0;" parent="WIyWlLk6GJQsqaUBKTNV-1" source="_oAQgHQ9doe4E5g8mVp9-23" target="MtcDqFp95zHoMJTxopEI-199" edge="1">
          <mxGeometry relative="1" as="geometry">
            <mxPoint x="380.0000000000002" y="560" as="targetPoint" />
            <Array as="points">
              <mxPoint x="408" y="560" />
            </Array>
          </mxGeometry>
        </mxCell>
        <mxCell id="_oAQgHQ9doe4E5g8mVp9-23" value="Escenario 1:" style="rounded=1;whiteSpace=wrap;html=1;" parent="WIyWlLk6GJQsqaUBKTNV-1" vertex="1">
          <mxGeometry x="235" y="530" width="120" height="60" as="geometry" />
        </mxCell>
        <mxCell id="MtcDqFp95zHoMJTxopEI-2" style="edgeStyle=orthogonalEdgeStyle;rounded=0;orthogonalLoop=1;jettySize=auto;html=1;entryX=1;entryY=0.5;entryDx=0;entryDy=0;exitX=0.5;exitY=1;exitDx=0;exitDy=0;" parent="WIyWlLk6GJQsqaUBKTNV-1" source="MtcDqFp95zHoMJTxopEI-199" target="_oAQgHQ9doe4E5g8mVp9-40" edge="1">
          <mxGeometry relative="1" as="geometry">
            <mxPoint x="424.9999999999998" y="635" as="sourcePoint" />
            <Array as="points">
              <mxPoint x="408" y="650" />
            </Array>
          </mxGeometry>
        </mxCell>
        <mxCell id="_oAQgHQ9doe4E5g8mVp9-61" style="edgeStyle=orthogonalEdgeStyle;rounded=0;orthogonalLoop=1;jettySize=auto;html=1;" parent="WIyWlLk6GJQsqaUBKTNV-1" source="_oAQgHQ9doe4E5g8mVp9-40" target="_oAQgHQ9doe4E5g8mVp9-60" edge="1">
          <mxGeometry relative="1" as="geometry" />
        </mxCell>
        <mxCell id="_oAQgHQ9doe4E5g8mVp9-40" value="Escenario 2:" style="rounded=1;whiteSpace=wrap;html=1;" parent="WIyWlLk6GJQsqaUBKTNV-1" vertex="1">
          <mxGeometry x="235" y="620" width="120" height="60" as="geometry" />
        </mxCell>
        <mxCell id="_oAQgHQ9doe4E5g8mVp9-65" style="edgeStyle=orthogonalEdgeStyle;rounded=0;orthogonalLoop=1;jettySize=auto;html=1;entryX=0.5;entryY=0;entryDx=0;entryDy=0;" parent="WIyWlLk6GJQsqaUBKTNV-1" source="_oAQgHQ9doe4E5g8mVp9-60" target="_oAQgHQ9doe4E5g8mVp9-64" edge="1">
          <mxGeometry relative="1" as="geometry" />
        </mxCell>
        <mxCell id="XIgQ0OOqWxFMapGrbs6A-8" style="edgeStyle=orthogonalEdgeStyle;rounded=0;orthogonalLoop=1;jettySize=auto;html=1;entryX=0.5;entryY=0;entryDx=0;entryDy=0;" parent="WIyWlLk6GJQsqaUBKTNV-1" source="_oAQgHQ9doe4E5g8mVp9-60" target="MtcDqFp95zHoMJTxopEI-201" edge="1">
          <mxGeometry relative="1" as="geometry" />
        </mxCell>
        <mxCell id="_oAQgHQ9doe4E5g8mVp9-60" value="Puzzle 1&lt;br&gt;&lt;div&gt;Adivina el número&lt;/div&gt;" style="rhombus;whiteSpace=wrap;html=1;" parent="WIyWlLk6GJQsqaUBKTNV-1" vertex="1">
          <mxGeometry x="255" y="710" width="80" height="80" as="geometry" />
        </mxCell>
        <mxCell id="_oAQgHQ9doe4E5g8mVp9-63" value="No" style="text;html=1;align=center;verticalAlign=middle;whiteSpace=wrap;rounded=0;" parent="WIyWlLk6GJQsqaUBKTNV-1" vertex="1">
          <mxGeometry x="200" y="710" width="70" height="30" as="geometry" />
        </mxCell>
        <mxCell id="XIgQ0OOqWxFMapGrbs6A-2" style="edgeStyle=orthogonalEdgeStyle;rounded=0;orthogonalLoop=1;jettySize=auto;html=1;" parent="WIyWlLk6GJQsqaUBKTNV-1" source="_oAQgHQ9doe4E5g8mVp9-64" target="XIgQ0OOqWxFMapGrbs6A-1" edge="1">
          <mxGeometry relative="1" as="geometry" />
        </mxCell>
        <mxCell id="_oAQgHQ9doe4E5g8mVp9-64" value="Escenario 3:" style="rounded=1;whiteSpace=wrap;html=1;" parent="WIyWlLk6GJQsqaUBKTNV-1" vertex="1">
          <mxGeometry x="235" y="820" width="120" height="60" as="geometry" />
        </mxCell>
        <mxCell id="_oAQgHQ9doe4E5g8mVp9-66" value="Si + puzzle acertado ++" style="text;html=1;align=center;verticalAlign=middle;whiteSpace=wrap;rounded=0;" parent="WIyWlLk6GJQsqaUBKTNV-1" vertex="1">
          <mxGeometry x="299" y="780" width="131" height="30" as="geometry" />
        </mxCell>
        <mxCell id="MtcDqFp95zHoMJTxopEI-107" style="edgeStyle=orthogonalEdgeStyle;rounded=0;orthogonalLoop=1;jettySize=auto;html=1;entryX=0.5;entryY=0;entryDx=0;entryDy=0;" parent="WIyWlLk6GJQsqaUBKTNV-1" source="_oAQgHQ9doe4E5g8mVp9-82" target="MtcDqFp95zHoMJTxopEI-106" edge="1">
          <mxGeometry relative="1" as="geometry" />
        </mxCell>
        <mxCell id="_oAQgHQ9doe4E5g8mVp9-82" value="Escenario 4:" style="rounded=1;whiteSpace=wrap;html=1;" parent="WIyWlLk6GJQsqaUBKTNV-1" vertex="1">
          <mxGeometry x="235" y="1003" width="120" height="60" as="geometry" />
        </mxCell>
        <mxCell id="XIgQ0OOqWxFMapGrbs6A-6" style="edgeStyle=orthogonalEdgeStyle;rounded=0;orthogonalLoop=1;jettySize=auto;html=1;" parent="WIyWlLk6GJQsqaUBKTNV-1" source="_oAQgHQ9doe4E5g8mVp9-104" target="XIgQ0OOqWxFMapGrbs6A-5" edge="1">
          <mxGeometry relative="1" as="geometry" />
        </mxCell>
        <mxCell id="_oAQgHQ9doe4E5g8mVp9-104" value="Escenario 5:&lt;div&gt;Sala oculta&lt;/div&gt;" style="rounded=1;whiteSpace=wrap;html=1;" parent="WIyWlLk6GJQsqaUBKTNV-1" vertex="1">
          <mxGeometry x="235" y="1086.5" width="120" height="60" as="geometry" />
        </mxCell>
        <mxCell id="XIgQ0OOqWxFMapGrbs6A-15" style="edgeStyle=orthogonalEdgeStyle;rounded=0;orthogonalLoop=1;jettySize=auto;html=1;entryX=1;entryY=0.5;entryDx=0;entryDy=0;" parent="WIyWlLk6GJQsqaUBKTNV-1" source="_oAQgHQ9doe4E5g8mVp9-109" target="_oAQgHQ9doe4E5g8mVp9-110" edge="1">
          <mxGeometry relative="1" as="geometry">
            <Array as="points">
              <mxPoint x="430" y="1300" />
            </Array>
          </mxGeometry>
        </mxCell>
        <mxCell id="_oAQgHQ9doe4E5g8mVp9-109" value="Pelea" style="rounded=1;whiteSpace=wrap;html=1;" parent="WIyWlLk6GJQsqaUBKTNV-1" vertex="1">
          <mxGeometry x="390" y="1230" width="80" height="40" as="geometry" />
        </mxCell>
        <mxCell id="XIgQ0OOqWxFMapGrbs6A-19" style="edgeStyle=orthogonalEdgeStyle;rounded=0;orthogonalLoop=1;jettySize=auto;html=1;" parent="WIyWlLk6GJQsqaUBKTNV-1" source="_oAQgHQ9doe4E5g8mVp9-110" target="XIgQ0OOqWxFMapGrbs6A-18" edge="1">
          <mxGeometry relative="1" as="geometry" />
        </mxCell>
        <mxCell id="_oAQgHQ9doe4E5g8mVp9-110" value="Escenario 6:&lt;div&gt;Zona de descanso&lt;/div&gt;" style="rounded=1;whiteSpace=wrap;html=1;" parent="WIyWlLk6GJQsqaUBKTNV-1" vertex="1">
          <mxGeometry x="235" y="1270" width="120" height="60" as="geometry" />
        </mxCell>
        <mxCell id="XIgQ0OOqWxFMapGrbs6A-25" style="edgeStyle=orthogonalEdgeStyle;rounded=0;orthogonalLoop=1;jettySize=auto;html=1;entryX=0.5;entryY=0;entryDx=0;entryDy=0;" parent="WIyWlLk6GJQsqaUBKTNV-1" source="_oAQgHQ9doe4E5g8mVp9-133" target="XIgQ0OOqWxFMapGrbs6A-24" edge="1">
          <mxGeometry relative="1" as="geometry" />
        </mxCell>
        <mxCell id="_oAQgHQ9doe4E5g8mVp9-133" value="Escenario 7:" style="rounded=1;whiteSpace=wrap;html=1;" parent="WIyWlLk6GJQsqaUBKTNV-1" vertex="1">
          <mxGeometry x="235" y="1470" width="120" height="60" as="geometry" />
        </mxCell>
        <mxCell id="_oAQgHQ9doe4E5g8mVp9-135" value="Si + puzzle acertado ++" style="text;html=1;align=center;verticalAlign=middle;whiteSpace=wrap;rounded=0;" parent="WIyWlLk6GJQsqaUBKTNV-1" vertex="1">
          <mxGeometry x="350" y="1375" width="140" height="30" as="geometry" />
        </mxCell>
        <mxCell id="XIgQ0OOqWxFMapGrbs6A-29" style="edgeStyle=orthogonalEdgeStyle;rounded=0;orthogonalLoop=1;jettySize=auto;html=1;entryX=0.5;entryY=0;entryDx=0;entryDy=0;" parent="WIyWlLk6GJQsqaUBKTNV-1" source="_oAQgHQ9doe4E5g8mVp9-141" target="XIgQ0OOqWxFMapGrbs6A-27" edge="1">
          <mxGeometry relative="1" as="geometry" />
        </mxCell>
        <mxCell id="_oAQgHQ9doe4E5g8mVp9-141" value="Escenario 8:" style="rounded=1;whiteSpace=wrap;html=1;" parent="WIyWlLk6GJQsqaUBKTNV-1" vertex="1">
          <mxGeometry x="235" y="1610" width="120" height="60" as="geometry" />
        </mxCell>
        <mxCell id="_oAQgHQ9doe4E5g8mVp9-144" value="No" style="text;html=1;align=center;verticalAlign=middle;whiteSpace=wrap;rounded=0;" parent="WIyWlLk6GJQsqaUBKTNV-1" vertex="1">
          <mxGeometry x="184" y="1375" width="60" height="30" as="geometry" />
        </mxCell>
        <mxCell id="XIgQ0OOqWxFMapGrbs6A-32" style="edgeStyle=orthogonalEdgeStyle;rounded=0;orthogonalLoop=1;jettySize=auto;html=1;entryX=0.5;entryY=0;entryDx=0;entryDy=0;" parent="WIyWlLk6GJQsqaUBKTNV-1" source="_oAQgHQ9doe4E5g8mVp9-163" target="_oAQgHQ9doe4E5g8mVp9-169" edge="1">
          <mxGeometry relative="1" as="geometry">
            <Array as="points">
              <mxPoint x="340" y="1860" />
              <mxPoint x="340" y="1930" />
            </Array>
          </mxGeometry>
        </mxCell>
        <mxCell id="XIgQ0OOqWxFMapGrbs6A-33" style="edgeStyle=orthogonalEdgeStyle;rounded=0;orthogonalLoop=1;jettySize=auto;html=1;" parent="WIyWlLk6GJQsqaUBKTNV-1" source="_oAQgHQ9doe4E5g8mVp9-163" target="_oAQgHQ9doe4E5g8mVp9-169" edge="1">
          <mxGeometry relative="1" as="geometry">
            <Array as="points">
              <mxPoint x="250" y="1860" />
              <mxPoint x="250" y="1930" />
            </Array>
          </mxGeometry>
        </mxCell>
        <mxCell id="_oAQgHQ9doe4E5g8mVp9-163" value="Puzzle 5&lt;div&gt;Trivial&amp;nbsp;&lt;/div&gt;&lt;div&gt;Egipto&lt;/div&gt;" style="rhombus;whiteSpace=wrap;html=1;" parent="WIyWlLk6GJQsqaUBKTNV-1" vertex="1">
          <mxGeometry x="255" y="1820" width="80" height="80" as="geometry" />
        </mxCell>
        <mxCell id="_oAQgHQ9doe4E5g8mVp9-165" value="No" style="text;html=1;align=center;verticalAlign=middle;whiteSpace=wrap;rounded=0;" parent="WIyWlLk6GJQsqaUBKTNV-1" vertex="1">
          <mxGeometry x="174" y="1846.25" width="70" height="27.5" as="geometry" />
        </mxCell>
        <mxCell id="_oAQgHQ9doe4E5g8mVp9-175" style="edgeStyle=orthogonalEdgeStyle;rounded=0;orthogonalLoop=1;jettySize=auto;html=1;entryX=0.5;entryY=0;entryDx=0;entryDy=0;" parent="WIyWlLk6GJQsqaUBKTNV-1" source="_oAQgHQ9doe4E5g8mVp9-169" target="_oAQgHQ9doe4E5g8mVp9-174" edge="1">
          <mxGeometry relative="1" as="geometry" />
        </mxCell>
        <mxCell id="_oAQgHQ9doe4E5g8mVp9-176" style="edgeStyle=orthogonalEdgeStyle;rounded=0;orthogonalLoop=1;jettySize=auto;html=1;" parent="WIyWlLk6GJQsqaUBKTNV-1" source="_oAQgHQ9doe4E5g8mVp9-169" target="_oAQgHQ9doe4E5g8mVp9-173" edge="1">
          <mxGeometry relative="1" as="geometry" />
        </mxCell>
        <mxCell id="_oAQgHQ9doe4E5g8mVp9-169" value="Decisión&lt;div&gt;Ammet&lt;/div&gt;" style="rhombus;whiteSpace=wrap;html=1;" parent="WIyWlLk6GJQsqaUBKTNV-1" vertex="1">
          <mxGeometry x="255" y="1930" width="80" height="80" as="geometry" />
        </mxCell>
        <mxCell id="_oAQgHQ9doe4E5g8mVp9-170" value="Si +&amp;nbsp;&lt;span style=&quot;background-color: transparent; color: light-dark(rgb(0, 0, 0), rgb(255, 255, 255));&quot;&gt;Uso especial&lt;/span&gt;" style="text;html=1;align=center;verticalAlign=middle;whiteSpace=wrap;rounded=0;" parent="WIyWlLk6GJQsqaUBKTNV-1" vertex="1">
          <mxGeometry x="342.5" y="1846.25" width="115" height="30" as="geometry" />
        </mxCell>
        <mxCell id="_oAQgHQ9doe4E5g8mVp9-173" value="Fin del juego" style="ellipse;whiteSpace=wrap;html=1;aspect=fixed;" parent="WIyWlLk6GJQsqaUBKTNV-1" vertex="1">
          <mxGeometry x="415" y="1945" width="50" height="50" as="geometry" />
        </mxCell>
        <mxCell id="_oAQgHQ9doe4E5g8mVp9-180" style="edgeStyle=orthogonalEdgeStyle;rounded=0;orthogonalLoop=1;jettySize=auto;html=1;entryX=0.5;entryY=0;entryDx=0;entryDy=0;" parent="WIyWlLk6GJQsqaUBKTNV-1" source="_oAQgHQ9doe4E5g8mVp9-174" target="_oAQgHQ9doe4E5g8mVp9-179" edge="1">
          <mxGeometry relative="1" as="geometry" />
        </mxCell>
        <mxCell id="_oAQgHQ9doe4E5g8mVp9-174" value="&lt;div&gt;Recuperación +&lt;/div&gt;Consigues Favor de Ammet" style="rounded=1;whiteSpace=wrap;html=1;" parent="WIyWlLk6GJQsqaUBKTNV-1" vertex="1">
          <mxGeometry x="235" y="2050" width="120" height="60" as="geometry" />
        </mxCell>
        <mxCell id="_oAQgHQ9doe4E5g8mVp9-177" value="No" style="text;html=1;align=center;verticalAlign=middle;whiteSpace=wrap;rounded=0;" parent="WIyWlLk6GJQsqaUBKTNV-1" vertex="1">
          <mxGeometry x="342.5" y="1940" width="60" height="30" as="geometry" />
        </mxCell>
        <mxCell id="_oAQgHQ9doe4E5g8mVp9-178" value="Si" style="text;html=1;align=center;verticalAlign=middle;whiteSpace=wrap;rounded=0;" parent="WIyWlLk6GJQsqaUBKTNV-1" vertex="1">
          <mxGeometry x="239" y="2010" width="60" height="30" as="geometry" />
        </mxCell>
        <mxCell id="_oAQgHQ9doe4E5g8mVp9-194" style="edgeStyle=orthogonalEdgeStyle;rounded=0;orthogonalLoop=1;jettySize=auto;html=1;entryX=0;entryY=0.5;entryDx=0;entryDy=0;" parent="WIyWlLk6GJQsqaUBKTNV-1" source="_oAQgHQ9doe4E5g8mVp9-179" target="MtcDqFp95zHoMJTxopEI-209" edge="1">
          <mxGeometry relative="1" as="geometry">
            <mxPoint x="460" y="2242.5555555555557" as="targetPoint" />
          </mxGeometry>
        </mxCell>
        <mxCell id="_oAQgHQ9doe4E5g8mVp9-179" value="Escenario 10:" style="rounded=1;whiteSpace=wrap;html=1;" parent="WIyWlLk6GJQsqaUBKTNV-1" vertex="1">
          <mxGeometry x="235" y="2162.5" width="120" height="60" as="geometry" />
        </mxCell>
        <mxCell id="_oAQgHQ9doe4E5g8mVp9-196" style="edgeStyle=orthogonalEdgeStyle;rounded=0;orthogonalLoop=1;jettySize=auto;html=1;" parent="WIyWlLk6GJQsqaUBKTNV-1" source="MtcDqFp95zHoMJTxopEI-209" target="_oAQgHQ9doe4E5g8mVp9-195" edge="1">
          <mxGeometry relative="1" as="geometry">
            <mxPoint x="535" y="2242.5000000000005" as="sourcePoint" />
          </mxGeometry>
        </mxCell>
        <mxCell id="_oAQgHQ9doe4E5g8mVp9-195" value="Fin del juego" style="ellipse;whiteSpace=wrap;html=1;aspect=fixed;" parent="WIyWlLk6GJQsqaUBKTNV-1" vertex="1">
          <mxGeometry x="493.75" y="2170" width="43.75" height="43.75" as="geometry" />
        </mxCell>
        <mxCell id="MtcDqFp95zHoMJTxopEI-11" style="edgeStyle=orthogonalEdgeStyle;rounded=0;orthogonalLoop=1;jettySize=auto;html=1;" parent="WIyWlLk6GJQsqaUBKTNV-1" source="MtcDqFp95zHoMJTxopEI-8" target="MtcDqFp95zHoMJTxopEI-10" edge="1">
          <mxGeometry relative="1" as="geometry" />
        </mxCell>
        <mxCell id="MtcDqFp95zHoMJTxopEI-8" value="Puzzles" style="ellipse;whiteSpace=wrap;html=1;aspect=fixed;" parent="WIyWlLk6GJQsqaUBKTNV-1" vertex="1">
          <mxGeometry x="550" y="10" width="60" height="60" as="geometry" />
        </mxCell>
        <mxCell id="MtcDqFp95zHoMJTxopEI-13" style="edgeStyle=orthogonalEdgeStyle;rounded=0;orthogonalLoop=1;jettySize=auto;html=1;" parent="WIyWlLk6GJQsqaUBKTNV-1" source="MtcDqFp95zHoMJTxopEI-10" target="MtcDqFp95zHoMJTxopEI-12" edge="1">
          <mxGeometry relative="1" as="geometry" />
        </mxCell>
        <mxCell id="MtcDqFp95zHoMJTxopEI-10" value="Puzzle" style="rounded=1;whiteSpace=wrap;html=1;" parent="WIyWlLk6GJQsqaUBKTNV-1" vertex="1">
          <mxGeometry x="520" y="100" width="120" height="40" as="geometry" />
        </mxCell>
        <mxCell id="vRXhc2d17sExE2w-US0Y-0" style="edgeStyle=orthogonalEdgeStyle;rounded=0;orthogonalLoop=1;jettySize=auto;html=1;entryX=0.5;entryY=0;entryDx=0;entryDy=0;" edge="1" parent="WIyWlLk6GJQsqaUBKTNV-1" source="MtcDqFp95zHoMJTxopEI-12" target="MtcDqFp95zHoMJTxopEI-49">
          <mxGeometry relative="1" as="geometry" />
        </mxCell>
        <mxCell id="MtcDqFp95zHoMJTxopEI-12" value="Mostrar menú&lt;div&gt;de opciones&lt;/div&gt;" style="rounded=1;whiteSpace=wrap;html=1;" parent="WIyWlLk6GJQsqaUBKTNV-1" vertex="1">
          <mxGeometry x="520" y="160" width="120" height="40" as="geometry" />
        </mxCell>
        <mxCell id="MtcDqFp95zHoMJTxopEI-18" style="edgeStyle=orthogonalEdgeStyle;rounded=0;orthogonalLoop=1;jettySize=auto;html=1;" parent="WIyWlLk6GJQsqaUBKTNV-1" source="MtcDqFp95zHoMJTxopEI-14" target="MtcDqFp95zHoMJTxopEI-17" edge="1">
          <mxGeometry relative="1" as="geometry" />
        </mxCell>
        <mxCell id="MtcDqFp95zHoMJTxopEI-52" style="edgeStyle=orthogonalEdgeStyle;rounded=0;orthogonalLoop=1;jettySize=auto;html=1;entryX=1;entryY=0.5;entryDx=0;entryDy=0;" parent="WIyWlLk6GJQsqaUBKTNV-1" source="EOmRAi8VKlLGIfQr5zz0-1" target="MtcDqFp95zHoMJTxopEI-12" edge="1">
          <mxGeometry relative="1" as="geometry">
            <mxPoint x="700" y="140" as="targetPoint" />
            <Array as="points">
              <mxPoint x="760" y="180" />
            </Array>
          </mxGeometry>
        </mxCell>
        <mxCell id="MtcDqFp95zHoMJTxopEI-14" value="Acierto&lt;div&gt;5 intentos&lt;/div&gt;" style="rhombus;whiteSpace=wrap;html=1;" parent="WIyWlLk6GJQsqaUBKTNV-1" vertex="1">
          <mxGeometry x="540" y="280" width="80" height="80" as="geometry" />
        </mxCell>
        <mxCell id="MtcDqFp95zHoMJTxopEI-22" style="edgeStyle=orthogonalEdgeStyle;rounded=0;orthogonalLoop=1;jettySize=auto;html=1;" parent="WIyWlLk6GJQsqaUBKTNV-1" source="MtcDqFp95zHoMJTxopEI-17" target="MtcDqFp95zHoMJTxopEI-21" edge="1">
          <mxGeometry relative="1" as="geometry" />
        </mxCell>
        <mxCell id="MtcDqFp95zHoMJTxopEI-17" value="puzzle acertado ++" style="rounded=1;whiteSpace=wrap;html=1;" parent="WIyWlLk6GJQsqaUBKTNV-1" vertex="1">
          <mxGeometry x="520" y="380" width="120" height="60" as="geometry" />
        </mxCell>
        <mxCell id="MtcDqFp95zHoMJTxopEI-19" value="No" style="text;html=1;align=center;verticalAlign=middle;whiteSpace=wrap;rounded=0;" parent="WIyWlLk6GJQsqaUBKTNV-1" vertex="1">
          <mxGeometry x="610" y="280" width="60" height="30" as="geometry" />
        </mxCell>
        <mxCell id="MtcDqFp95zHoMJTxopEI-20" value="Si" style="text;html=1;align=center;verticalAlign=middle;whiteSpace=wrap;rounded=0;" parent="WIyWlLk6GJQsqaUBKTNV-1" vertex="1">
          <mxGeometry x="580" y="350" width="60" height="30" as="geometry" />
        </mxCell>
        <mxCell id="MtcDqFp95zHoMJTxopEI-21" value="Siguiente escenario" style="ellipse;whiteSpace=wrap;html=1;aspect=fixed;" parent="WIyWlLk6GJQsqaUBKTNV-1" vertex="1">
          <mxGeometry x="552.5" y="485" width="55" height="55" as="geometry" />
        </mxCell>
        <mxCell id="MtcDqFp95zHoMJTxopEI-99" style="edgeStyle=orthogonalEdgeStyle;rounded=0;orthogonalLoop=1;jettySize=auto;html=1;entryX=0.5;entryY=0;entryDx=0;entryDy=0;" parent="WIyWlLk6GJQsqaUBKTNV-1" source="MtcDqFp95zHoMJTxopEI-24" target="MtcDqFp95zHoMJTxopEI-98" edge="1">
          <mxGeometry relative="1" as="geometry">
            <Array as="points">
              <mxPoint x="587" y="555" />
            </Array>
          </mxGeometry>
        </mxCell>
        <mxCell id="MtcDqFp95zHoMJTxopEI-24" value="Pelea" style="ellipse;whiteSpace=wrap;html=1;aspect=fixed;" parent="WIyWlLk6GJQsqaUBKTNV-1" vertex="1">
          <mxGeometry x="623" y="525" width="60" height="60" as="geometry" />
        </mxCell>
        <mxCell id="MtcDqFp95zHoMJTxopEI-25" style="edgeStyle=orthogonalEdgeStyle;rounded=0;orthogonalLoop=1;jettySize=auto;html=1;" parent="WIyWlLk6GJQsqaUBKTNV-1" source="MtcDqFp95zHoMJTxopEI-26" target="MtcDqFp95zHoMJTxopEI-28" edge="1">
          <mxGeometry relative="1" as="geometry" />
        </mxCell>
        <mxCell id="MtcDqFp95zHoMJTxopEI-26" value="Turno Jugador" style="rounded=1;whiteSpace=wrap;html=1;" parent="WIyWlLk6GJQsqaUBKTNV-1" vertex="1">
          <mxGeometry x="527.5" y="640" width="120" height="35" as="geometry" />
        </mxCell>
        <mxCell id="MtcDqFp95zHoMJTxopEI-43" style="edgeStyle=orthogonalEdgeStyle;rounded=0;orthogonalLoop=1;jettySize=auto;html=1;entryX=0.5;entryY=0;entryDx=0;entryDy=0;" parent="WIyWlLk6GJQsqaUBKTNV-1" source="MtcDqFp95zHoMJTxopEI-28" target="MtcDqFp95zHoMJTxopEI-39" edge="1">
          <mxGeometry relative="1" as="geometry">
            <Array as="points">
              <mxPoint x="588" y="730" />
              <mxPoint x="691" y="730" />
            </Array>
          </mxGeometry>
        </mxCell>
        <mxCell id="MtcDqFp95zHoMJTxopEI-44" style="edgeStyle=orthogonalEdgeStyle;rounded=0;orthogonalLoop=1;jettySize=auto;html=1;entryX=0.5;entryY=0;entryDx=0;entryDy=0;" parent="WIyWlLk6GJQsqaUBKTNV-1" source="MtcDqFp95zHoMJTxopEI-28" target="MtcDqFp95zHoMJTxopEI-37" edge="1">
          <mxGeometry relative="1" as="geometry">
            <Array as="points">
              <mxPoint x="588" y="730" />
              <mxPoint x="505" y="730" />
            </Array>
          </mxGeometry>
        </mxCell>
        <mxCell id="MtcDqFp95zHoMJTxopEI-62" style="edgeStyle=orthogonalEdgeStyle;rounded=0;orthogonalLoop=1;jettySize=auto;html=1;entryX=0.5;entryY=0;entryDx=0;entryDy=0;" parent="WIyWlLk6GJQsqaUBKTNV-1" source="MtcDqFp95zHoMJTxopEI-28" target="MtcDqFp95zHoMJTxopEI-38" edge="1">
          <mxGeometry relative="1" as="geometry" />
        </mxCell>
        <mxCell id="MtcDqFp95zHoMJTxopEI-28" value="Mostrar menú&lt;div&gt;de opciones&lt;/div&gt;" style="rounded=1;whiteSpace=wrap;html=1;" parent="WIyWlLk6GJQsqaUBKTNV-1" vertex="1">
          <mxGeometry x="527.5" y="690" width="120" height="35" as="geometry" />
        </mxCell>
        <mxCell id="vRXhc2d17sExE2w-US0Y-11" style="edgeStyle=orthogonalEdgeStyle;rounded=0;orthogonalLoop=1;jettySize=auto;html=1;entryX=0.5;entryY=0;entryDx=0;entryDy=0;" edge="1" parent="WIyWlLk6GJQsqaUBKTNV-1" source="MtcDqFp95zHoMJTxopEI-37" target="MtcDqFp95zHoMJTxopEI-46">
          <mxGeometry relative="1" as="geometry">
            <Array as="points">
              <mxPoint x="505" y="800" />
              <mxPoint x="615" y="800" />
            </Array>
          </mxGeometry>
        </mxCell>
        <mxCell id="MtcDqFp95zHoMJTxopEI-37" value="Ataque básico" style="rounded=1;whiteSpace=wrap;html=1;" parent="WIyWlLk6GJQsqaUBKTNV-1" vertex="1">
          <mxGeometry x="470" y="750" width="70" height="30" as="geometry" />
        </mxCell>
        <mxCell id="vRXhc2d17sExE2w-US0Y-9" style="edgeStyle=orthogonalEdgeStyle;rounded=0;orthogonalLoop=1;jettySize=auto;html=1;" edge="1" parent="WIyWlLk6GJQsqaUBKTNV-1" source="MtcDqFp95zHoMJTxopEI-38" target="MtcDqFp95zHoMJTxopEI-46">
          <mxGeometry relative="1" as="geometry" />
        </mxCell>
        <mxCell id="MtcDqFp95zHoMJTxopEI-38" value="Ataque fuerte" style="rounded=1;whiteSpace=wrap;html=1;" parent="WIyWlLk6GJQsqaUBKTNV-1" vertex="1">
          <mxGeometry x="552.5" y="750" width="70" height="30" as="geometry" />
        </mxCell>
        <mxCell id="vRXhc2d17sExE2w-US0Y-10" style="edgeStyle=orthogonalEdgeStyle;rounded=0;orthogonalLoop=1;jettySize=auto;html=1;entryX=0.5;entryY=0;entryDx=0;entryDy=0;" edge="1" parent="WIyWlLk6GJQsqaUBKTNV-1" source="MtcDqFp95zHoMJTxopEI-39" target="MtcDqFp95zHoMJTxopEI-46">
          <mxGeometry relative="1" as="geometry">
            <Array as="points">
              <mxPoint x="691" y="800" />
              <mxPoint x="615" y="800" />
            </Array>
          </mxGeometry>
        </mxCell>
        <mxCell id="MtcDqFp95zHoMJTxopEI-39" value="Habilidad especial" style="rounded=1;whiteSpace=wrap;html=1;" parent="WIyWlLk6GJQsqaUBKTNV-1" vertex="1">
          <mxGeometry x="656.25" y="745" width="70" height="30" as="geometry" />
        </mxCell>
        <mxCell id="MtcDqFp95zHoMJTxopEI-46" value="Ayuda NPC" style="rounded=1;whiteSpace=wrap;html=1;" parent="WIyWlLk6GJQsqaUBKTNV-1" vertex="1">
          <mxGeometry x="580" y="810" width="70" height="30" as="geometry" />
        </mxCell>
        <mxCell id="vRXhc2d17sExE2w-US0Y-1" style="edgeStyle=orthogonalEdgeStyle;rounded=0;orthogonalLoop=1;jettySize=auto;html=1;entryX=0.5;entryY=0;entryDx=0;entryDy=0;" edge="1" parent="WIyWlLk6GJQsqaUBKTNV-1" source="MtcDqFp95zHoMJTxopEI-49" target="MtcDqFp95zHoMJTxopEI-14">
          <mxGeometry relative="1" as="geometry" />
        </mxCell>
        <mxCell id="MtcDqFp95zHoMJTxopEI-49" value="Adivinar" style="rounded=1;whiteSpace=wrap;html=1;" parent="WIyWlLk6GJQsqaUBKTNV-1" vertex="1">
          <mxGeometry x="548.75" y="230" width="62.5" height="30" as="geometry" />
        </mxCell>
        <mxCell id="MtcDqFp95zHoMJTxopEI-65" value="Turno enemigo" style="rounded=1;whiteSpace=wrap;html=1;" parent="WIyWlLk6GJQsqaUBKTNV-1" vertex="1">
          <mxGeometry x="555" y="950" width="120" height="40" as="geometry" />
        </mxCell>
        <mxCell id="MtcDqFp95zHoMJTxopEI-73" style="edgeStyle=orthogonalEdgeStyle;rounded=0;orthogonalLoop=1;jettySize=auto;html=1;entryX=0.5;entryY=0;entryDx=0;entryDy=0;" parent="WIyWlLk6GJQsqaUBKTNV-1" target="MtcDqFp95zHoMJTxopEI-81" edge="1">
          <mxGeometry relative="1" as="geometry">
            <mxPoint x="618" y="988" as="sourcePoint" />
            <Array as="points">
              <mxPoint x="618" y="998" />
              <mxPoint x="695" y="998" />
            </Array>
          </mxGeometry>
        </mxCell>
        <mxCell id="MtcDqFp95zHoMJTxopEI-74" style="edgeStyle=orthogonalEdgeStyle;rounded=0;orthogonalLoop=1;jettySize=auto;html=1;entryX=0.5;entryY=0;entryDx=0;entryDy=0;" parent="WIyWlLk6GJQsqaUBKTNV-1" target="MtcDqFp95zHoMJTxopEI-77" edge="1">
          <mxGeometry relative="1" as="geometry">
            <mxPoint x="618" y="988" as="sourcePoint" />
            <Array as="points">
              <mxPoint x="618" y="998" />
              <mxPoint x="535" y="998" />
            </Array>
          </mxGeometry>
        </mxCell>
        <mxCell id="MtcDqFp95zHoMJTxopEI-75" style="edgeStyle=orthogonalEdgeStyle;rounded=0;orthogonalLoop=1;jettySize=auto;html=1;entryX=0.5;entryY=0;entryDx=0;entryDy=0;" parent="WIyWlLk6GJQsqaUBKTNV-1" target="MtcDqFp95zHoMJTxopEI-79" edge="1">
          <mxGeometry relative="1" as="geometry">
            <mxPoint x="618" y="988" as="sourcePoint" />
          </mxGeometry>
        </mxCell>
        <mxCell id="MtcDqFp95zHoMJTxopEI-216" style="edgeStyle=orthogonalEdgeStyle;rounded=0;orthogonalLoop=1;jettySize=auto;html=1;entryX=0.5;entryY=0;entryDx=0;entryDy=0;" parent="WIyWlLk6GJQsqaUBKTNV-1" source="MtcDqFp95zHoMJTxopEI-77" target="MtcDqFp95zHoMJTxopEI-211" edge="1">
          <mxGeometry relative="1" as="geometry">
            <Array as="points">
              <mxPoint x="535" y="1063" />
              <mxPoint x="618" y="1063" />
            </Array>
          </mxGeometry>
        </mxCell>
        <mxCell id="MtcDqFp95zHoMJTxopEI-77" value="Ataque básico" style="rounded=1;whiteSpace=wrap;html=1;" parent="WIyWlLk6GJQsqaUBKTNV-1" vertex="1">
          <mxGeometry x="500" y="1018" width="70" height="30" as="geometry" />
        </mxCell>
        <mxCell id="MtcDqFp95zHoMJTxopEI-215" style="edgeStyle=orthogonalEdgeStyle;rounded=0;orthogonalLoop=1;jettySize=auto;html=1;entryX=0.5;entryY=0;entryDx=0;entryDy=0;" parent="WIyWlLk6GJQsqaUBKTNV-1" source="MtcDqFp95zHoMJTxopEI-79" target="MtcDqFp95zHoMJTxopEI-211" edge="1">
          <mxGeometry relative="1" as="geometry" />
        </mxCell>
        <mxCell id="MtcDqFp95zHoMJTxopEI-79" value="Ataque fuerte" style="rounded=1;whiteSpace=wrap;html=1;" parent="WIyWlLk6GJQsqaUBKTNV-1" vertex="1">
          <mxGeometry x="582.5" y="1018" width="70" height="30" as="geometry" />
        </mxCell>
        <mxCell id="MtcDqFp95zHoMJTxopEI-214" style="edgeStyle=orthogonalEdgeStyle;rounded=0;orthogonalLoop=1;jettySize=auto;html=1;entryX=0.5;entryY=0;entryDx=0;entryDy=0;" parent="WIyWlLk6GJQsqaUBKTNV-1" source="MtcDqFp95zHoMJTxopEI-81" target="MtcDqFp95zHoMJTxopEI-211" edge="1">
          <mxGeometry relative="1" as="geometry">
            <Array as="points">
              <mxPoint x="695" y="1063" />
              <mxPoint x="618" y="1063" />
            </Array>
          </mxGeometry>
        </mxCell>
        <mxCell id="MtcDqFp95zHoMJTxopEI-81" value="Habilidad especial" style="rounded=1;whiteSpace=wrap;html=1;" parent="WIyWlLk6GJQsqaUBKTNV-1" vertex="1">
          <mxGeometry x="660" y="1018" width="70" height="30" as="geometry" />
        </mxCell>
        <mxCell id="MtcDqFp95zHoMJTxopEI-88" style="edgeStyle=orthogonalEdgeStyle;rounded=0;orthogonalLoop=1;jettySize=auto;html=1;entryX=0.5;entryY=0;entryDx=0;entryDy=0;" parent="WIyWlLk6GJQsqaUBKTNV-1" source="MtcDqFp95zHoMJTxopEI-85" target="MtcDqFp95zHoMJTxopEI-65" edge="1">
          <mxGeometry relative="1" as="geometry" />
        </mxCell>
        <mxCell id="MtcDqFp95zHoMJTxopEI-97" style="edgeStyle=orthogonalEdgeStyle;rounded=0;orthogonalLoop=1;jettySize=auto;html=1;entryX=1;entryY=0.5;entryDx=0;entryDy=0;" parent="WIyWlLk6GJQsqaUBKTNV-1" source="MtcDqFp95zHoMJTxopEI-85" target="MtcDqFp95zHoMJTxopEI-96" edge="1">
          <mxGeometry relative="1" as="geometry">
            <mxPoint x="650" y="1163" as="targetPoint" />
            <Array as="points">
              <mxPoint x="760" y="893" />
              <mxPoint x="760" y="1180" />
            </Array>
          </mxGeometry>
        </mxCell>
        <mxCell id="MtcDqFp95zHoMJTxopEI-85" value="Enemigo vivo?" style="rhombus;whiteSpace=wrap;html=1;" parent="WIyWlLk6GJQsqaUBKTNV-1" vertex="1">
          <mxGeometry x="582.5" y="863" width="64.5" height="60" as="geometry" />
        </mxCell>
        <mxCell id="MtcDqFp95zHoMJTxopEI-93" value="Si" style="text;html=1;align=center;verticalAlign=middle;whiteSpace=wrap;rounded=0;" parent="WIyWlLk6GJQsqaUBKTNV-1" vertex="1">
          <mxGeometry x="563" y="913" width="60" height="30" as="geometry" />
        </mxCell>
        <mxCell id="MtcDqFp95zHoMJTxopEI-94" value="No" style="text;html=1;align=center;verticalAlign=middle;whiteSpace=wrap;rounded=0;" parent="WIyWlLk6GJQsqaUBKTNV-1" vertex="1">
          <mxGeometry x="670" y="898" width="60" height="30" as="geometry" />
        </mxCell>
        <mxCell id="MtcDqFp95zHoMJTxopEI-96" value="Fin pelea" style="ellipse;whiteSpace=wrap;html=1;aspect=fixed;" parent="WIyWlLk6GJQsqaUBKTNV-1" vertex="1">
          <mxGeometry x="656.25" y="1156" width="47" height="47" as="geometry" />
        </mxCell>
        <mxCell id="MtcDqFp95zHoMJTxopEI-100" style="edgeStyle=orthogonalEdgeStyle;rounded=0;orthogonalLoop=1;jettySize=auto;html=1;" parent="WIyWlLk6GJQsqaUBKTNV-1" source="MtcDqFp95zHoMJTxopEI-98" target="MtcDqFp95zHoMJTxopEI-26" edge="1">
          <mxGeometry relative="1" as="geometry" />
        </mxCell>
        <mxCell id="MtcDqFp95zHoMJTxopEI-102" style="edgeStyle=orthogonalEdgeStyle;rounded=0;orthogonalLoop=1;jettySize=auto;html=1;entryX=0;entryY=0.25;entryDx=0;entryDy=0;" parent="WIyWlLk6GJQsqaUBKTNV-1" source="MtcDqFp95zHoMJTxopEI-98" target="MtcDqFp95zHoMJTxopEI-65" edge="1">
          <mxGeometry relative="1" as="geometry">
            <Array as="points">
              <mxPoint x="460" y="595" />
              <mxPoint x="460" y="960" />
            </Array>
          </mxGeometry>
        </mxCell>
        <mxCell id="MtcDqFp95zHoMJTxopEI-98" value="Empieza&lt;div&gt;Jugador?&lt;/div&gt;" style="rhombus;whiteSpace=wrap;html=1;" parent="WIyWlLk6GJQsqaUBKTNV-1" vertex="1">
          <mxGeometry x="550" y="570" width="75" height="50" as="geometry" />
        </mxCell>
        <mxCell id="MtcDqFp95zHoMJTxopEI-101" value="Si" style="text;html=1;align=center;verticalAlign=middle;whiteSpace=wrap;rounded=0;" parent="WIyWlLk6GJQsqaUBKTNV-1" vertex="1">
          <mxGeometry x="535" y="610" width="60" height="30" as="geometry" />
        </mxCell>
        <mxCell id="MtcDqFp95zHoMJTxopEI-104" value="No" style="text;html=1;align=center;verticalAlign=middle;whiteSpace=wrap;rounded=0;" parent="WIyWlLk6GJQsqaUBKTNV-1" vertex="1">
          <mxGeometry x="485" y="570" width="60" height="30" as="geometry" />
        </mxCell>
        <mxCell id="XIgQ0OOqWxFMapGrbs6A-3" style="edgeStyle=orthogonalEdgeStyle;rounded=0;orthogonalLoop=1;jettySize=auto;html=1;entryX=0;entryY=0.5;entryDx=0;entryDy=0;" parent="WIyWlLk6GJQsqaUBKTNV-1" source="MtcDqFp95zHoMJTxopEI-106" target="_oAQgHQ9doe4E5g8mVp9-104" edge="1">
          <mxGeometry relative="1" as="geometry">
            <Array as="points">
              <mxPoint x="162" y="1117" />
              <mxPoint x="214" y="1117" />
            </Array>
          </mxGeometry>
        </mxCell>
        <mxCell id="MtcDqFp95zHoMJTxopEI-106" value="Pelea" style="rounded=1;whiteSpace=wrap;html=1;" parent="WIyWlLk6GJQsqaUBKTNV-1" vertex="1">
          <mxGeometry x="130" y="1053" width="63.51" height="40" as="geometry" />
        </mxCell>
        <mxCell id="MtcDqFp95zHoMJTxopEI-199" value="Pelea" style="rounded=1;whiteSpace=wrap;html=1;" parent="WIyWlLk6GJQsqaUBKTNV-1" vertex="1">
          <mxGeometry x="376.49" y="575" width="63.51" height="40" as="geometry" />
        </mxCell>
        <mxCell id="XIgQ0OOqWxFMapGrbs6A-9" style="edgeStyle=orthogonalEdgeStyle;rounded=0;orthogonalLoop=1;jettySize=auto;html=1;entryX=0;entryY=0.5;entryDx=0;entryDy=0;" parent="WIyWlLk6GJQsqaUBKTNV-1" source="MtcDqFp95zHoMJTxopEI-201" target="_oAQgHQ9doe4E5g8mVp9-64" edge="1">
          <mxGeometry relative="1" as="geometry">
            <Array as="points">
              <mxPoint x="170" y="850" />
            </Array>
          </mxGeometry>
        </mxCell>
        <mxCell id="MtcDqFp95zHoMJTxopEI-201" value="Pelea" style="rounded=1;whiteSpace=wrap;html=1;" parent="WIyWlLk6GJQsqaUBKTNV-1" vertex="1">
          <mxGeometry x="136.49" y="775" width="63.51" height="40" as="geometry" />
        </mxCell>
        <mxCell id="MtcDqFp95zHoMJTxopEI-209" value="Pelea Final" style="rounded=1;whiteSpace=wrap;html=1;" parent="WIyWlLk6GJQsqaUBKTNV-1" vertex="1">
          <mxGeometry x="393.99" y="2172.5" width="63.51" height="40" as="geometry" />
        </mxCell>
        <mxCell id="MtcDqFp95zHoMJTxopEI-212" style="edgeStyle=orthogonalEdgeStyle;rounded=0;orthogonalLoop=1;jettySize=auto;html=1;entryX=1;entryY=0.5;entryDx=0;entryDy=0;exitX=1;exitY=0.5;exitDx=0;exitDy=0;" parent="WIyWlLk6GJQsqaUBKTNV-1" source="MtcDqFp95zHoMJTxopEI-211" target="MtcDqFp95zHoMJTxopEI-26" edge="1">
          <mxGeometry relative="1" as="geometry">
            <Array as="points">
              <mxPoint x="810" y="1103" />
              <mxPoint x="810" y="658" />
            </Array>
          </mxGeometry>
        </mxCell>
        <mxCell id="MtcDqFp95zHoMJTxopEI-225" style="edgeStyle=orthogonalEdgeStyle;rounded=0;orthogonalLoop=1;jettySize=auto;html=1;entryX=0.5;entryY=0;entryDx=0;entryDy=0;" parent="WIyWlLk6GJQsqaUBKTNV-1" source="MtcDqFp95zHoMJTxopEI-211" target="MtcDqFp95zHoMJTxopEI-224" edge="1">
          <mxGeometry relative="1" as="geometry" />
        </mxCell>
        <mxCell id="MtcDqFp95zHoMJTxopEI-211" value="Jugador&lt;div&gt;vivo?&lt;/div&gt;" style="rhombus;whiteSpace=wrap;html=1;" parent="WIyWlLk6GJQsqaUBKTNV-1" vertex="1">
          <mxGeometry x="585.25" y="1073" width="64.5" height="60" as="geometry" />
        </mxCell>
        <mxCell id="MtcDqFp95zHoMJTxopEI-220" value="No" style="text;html=1;align=center;verticalAlign=middle;whiteSpace=wrap;rounded=0;" parent="WIyWlLk6GJQsqaUBKTNV-1" vertex="1">
          <mxGeometry x="560" y="1126" width="60" height="30" as="geometry" />
        </mxCell>
        <mxCell id="MtcDqFp95zHoMJTxopEI-221" value="Si" style="text;html=1;align=center;verticalAlign=middle;whiteSpace=wrap;rounded=0;" parent="WIyWlLk6GJQsqaUBKTNV-1" vertex="1">
          <mxGeometry x="649.75" y="1073" width="60" height="30" as="geometry" />
        </mxCell>
        <mxCell id="MtcDqFp95zHoMJTxopEI-224" value="Fin Juego" style="ellipse;whiteSpace=wrap;html=1;aspect=fixed;" parent="WIyWlLk6GJQsqaUBKTNV-1" vertex="1">
          <mxGeometry x="594.25" y="1156" width="47" height="47" as="geometry" />
        </mxCell>
        <mxCell id="EOmRAi8VKlLGIfQr5zz0-0" value="" style="edgeStyle=orthogonalEdgeStyle;rounded=0;orthogonalLoop=1;jettySize=auto;html=1;entryX=0;entryY=0.5;entryDx=0;entryDy=0;" parent="WIyWlLk6GJQsqaUBKTNV-1" source="MtcDqFp95zHoMJTxopEI-14" target="EOmRAi8VKlLGIfQr5zz0-1" edge="1">
          <mxGeometry relative="1" as="geometry">
            <mxPoint x="640" y="180" as="targetPoint" />
            <Array as="points">
              <mxPoint x="690" y="320" />
              <mxPoint x="690" y="295" />
            </Array>
            <mxPoint x="610" y="310" as="sourcePoint" />
          </mxGeometry>
        </mxCell>
        <mxCell id="EOmRAi8VKlLGIfQr5zz0-4" style="edgeStyle=orthogonalEdgeStyle;rounded=0;orthogonalLoop=1;jettySize=auto;html=1;entryX=1;entryY=0.5;entryDx=0;entryDy=0;" parent="WIyWlLk6GJQsqaUBKTNV-1" source="EOmRAi8VKlLGIfQr5zz0-1" target="MtcDqFp95zHoMJTxopEI-21" edge="1">
          <mxGeometry relative="1" as="geometry">
            <Array as="points">
              <mxPoint x="760" y="513" />
            </Array>
          </mxGeometry>
        </mxCell>
        <mxCell id="EOmRAi8VKlLGIfQr5zz0-1" value="Quedan intentos?" style="rhombus;whiteSpace=wrap;html=1;" parent="WIyWlLk6GJQsqaUBKTNV-1" vertex="1">
          <mxGeometry x="720" y="255" width="80" height="80" as="geometry" />
        </mxCell>
        <mxCell id="EOmRAi8VKlLGIfQr5zz0-2" value="Si" style="text;html=1;align=center;verticalAlign=middle;whiteSpace=wrap;rounded=0;" parent="WIyWlLk6GJQsqaUBKTNV-1" vertex="1">
          <mxGeometry x="750" y="230" width="60" height="30" as="geometry" />
        </mxCell>
        <mxCell id="EOmRAi8VKlLGIfQr5zz0-3" value="No" style="text;html=1;align=center;verticalAlign=middle;whiteSpace=wrap;rounded=0;" parent="WIyWlLk6GJQsqaUBKTNV-1" vertex="1">
          <mxGeometry x="750" y="330" width="60" height="30" as="geometry" />
        </mxCell>
        <mxCell id="XIgQ0OOqWxFMapGrbs6A-11" style="edgeStyle=orthogonalEdgeStyle;rounded=0;orthogonalLoop=1;jettySize=auto;html=1;" parent="WIyWlLk6GJQsqaUBKTNV-1" source="XIgQ0OOqWxFMapGrbs6A-1" edge="1">
          <mxGeometry relative="1" as="geometry">
            <mxPoint x="250" y="1003" as="targetPoint" />
            <Array as="points">
              <mxPoint x="250" y="940" />
            </Array>
          </mxGeometry>
        </mxCell>
        <mxCell id="XIgQ0OOqWxFMapGrbs6A-1" value="Puzzle 2&lt;div&gt;&lt;div&gt;Acertijo&lt;/div&gt;&lt;div&gt;Esfinge&lt;/div&gt;&lt;/div&gt;" style="rhombus;whiteSpace=wrap;html=1;" parent="WIyWlLk6GJQsqaUBKTNV-1" vertex="1">
          <mxGeometry x="255" y="900" width="80" height="80" as="geometry" />
        </mxCell>
        <mxCell id="XIgQ0OOqWxFMapGrbs6A-7" style="edgeStyle=orthogonalEdgeStyle;rounded=0;orthogonalLoop=1;jettySize=auto;html=1;" parent="WIyWlLk6GJQsqaUBKTNV-1" source="XIgQ0OOqWxFMapGrbs6A-5" target="_oAQgHQ9doe4E5g8mVp9-110" edge="1">
          <mxGeometry relative="1" as="geometry" />
        </mxCell>
        <mxCell id="XIgQ0OOqWxFMapGrbs6A-14" style="edgeStyle=orthogonalEdgeStyle;rounded=0;orthogonalLoop=1;jettySize=auto;html=1;entryX=0.5;entryY=0;entryDx=0;entryDy=0;" parent="WIyWlLk6GJQsqaUBKTNV-1" source="XIgQ0OOqWxFMapGrbs6A-5" target="_oAQgHQ9doe4E5g8mVp9-109" edge="1">
          <mxGeometry relative="1" as="geometry" />
        </mxCell>
        <mxCell id="XIgQ0OOqWxFMapGrbs6A-5" value="Puzzle 3&lt;div&gt;&lt;div&gt;Ahorcado&lt;/div&gt;&lt;/div&gt;" style="rhombus;whiteSpace=wrap;html=1;" parent="WIyWlLk6GJQsqaUBKTNV-1" vertex="1">
          <mxGeometry x="255" y="1165" width="80" height="80" as="geometry" />
        </mxCell>
        <mxCell id="XIgQ0OOqWxFMapGrbs6A-10" value="Si + puzzle acertado ++" style="text;html=1;align=center;verticalAlign=middle;whiteSpace=wrap;rounded=0;" parent="WIyWlLk6GJQsqaUBKTNV-1" vertex="1">
          <mxGeometry x="342.5" y="960" width="137.5" height="30" as="geometry" />
        </mxCell>
        <mxCell id="XIgQ0OOqWxFMapGrbs6A-12" value="No" style="text;html=1;align=center;verticalAlign=middle;whiteSpace=wrap;rounded=0;" parent="WIyWlLk6GJQsqaUBKTNV-1" vertex="1">
          <mxGeometry x="195" y="943" width="60" height="30" as="geometry" />
        </mxCell>
        <mxCell id="XIgQ0OOqWxFMapGrbs6A-16" value="Si + puzzle acertado ++" style="text;html=1;align=center;verticalAlign=middle;whiteSpace=wrap;rounded=0;" parent="WIyWlLk6GJQsqaUBKTNV-1" vertex="1">
          <mxGeometry x="150" y="1235" width="149" height="30" as="geometry" />
        </mxCell>
        <mxCell id="XIgQ0OOqWxFMapGrbs6A-17" value="No" style="text;html=1;align=center;verticalAlign=middle;whiteSpace=wrap;rounded=0;" parent="WIyWlLk6GJQsqaUBKTNV-1" vertex="1">
          <mxGeometry x="350" y="1180" width="60" height="30" as="geometry" />
        </mxCell>
        <mxCell id="XIgQ0OOqWxFMapGrbs6A-18" value="Puzzle 4&lt;div&gt;Piedra papel&lt;/div&gt;&lt;div&gt;o tijeras&lt;/div&gt;" style="rhombus;whiteSpace=wrap;html=1;" parent="WIyWlLk6GJQsqaUBKTNV-1" vertex="1">
          <mxGeometry x="255" y="1350" width="80" height="80" as="geometry" />
        </mxCell>
        <mxCell id="XIgQ0OOqWxFMapGrbs6A-21" style="edgeStyle=orthogonalEdgeStyle;rounded=0;orthogonalLoop=1;jettySize=auto;html=1;entryX=0.846;entryY=0.029;entryDx=0;entryDy=0;entryPerimeter=0;" parent="WIyWlLk6GJQsqaUBKTNV-1" source="XIgQ0OOqWxFMapGrbs6A-1" target="_oAQgHQ9doe4E5g8mVp9-82" edge="1">
          <mxGeometry relative="1" as="geometry">
            <Array as="points">
              <mxPoint x="337" y="940" />
              <mxPoint x="337" y="1000" />
            </Array>
          </mxGeometry>
        </mxCell>
        <mxCell id="XIgQ0OOqWxFMapGrbs6A-22" style="edgeStyle=orthogonalEdgeStyle;rounded=0;orthogonalLoop=1;jettySize=auto;html=1;entryX=0.908;entryY=0.04;entryDx=0;entryDy=0;entryPerimeter=0;" parent="WIyWlLk6GJQsqaUBKTNV-1" source="XIgQ0OOqWxFMapGrbs6A-18" target="_oAQgHQ9doe4E5g8mVp9-133" edge="1">
          <mxGeometry relative="1" as="geometry">
            <Array as="points">
              <mxPoint x="344" y="1390" />
            </Array>
          </mxGeometry>
        </mxCell>
        <mxCell id="XIgQ0OOqWxFMapGrbs6A-23" style="edgeStyle=orthogonalEdgeStyle;rounded=0;orthogonalLoop=1;jettySize=auto;html=1;entryX=0.081;entryY=0.017;entryDx=0;entryDy=0;entryPerimeter=0;" parent="WIyWlLk6GJQsqaUBKTNV-1" source="XIgQ0OOqWxFMapGrbs6A-18" target="_oAQgHQ9doe4E5g8mVp9-133" edge="1">
          <mxGeometry relative="1" as="geometry">
            <Array as="points">
              <mxPoint x="245" y="1390" />
            </Array>
          </mxGeometry>
        </mxCell>
        <mxCell id="XIgQ0OOqWxFMapGrbs6A-26" style="edgeStyle=orthogonalEdgeStyle;rounded=0;orthogonalLoop=1;jettySize=auto;html=1;entryX=0;entryY=0.5;entryDx=0;entryDy=0;" parent="WIyWlLk6GJQsqaUBKTNV-1" source="XIgQ0OOqWxFMapGrbs6A-24" target="_oAQgHQ9doe4E5g8mVp9-141" edge="1">
          <mxGeometry relative="1" as="geometry">
            <Array as="points">
              <mxPoint x="184" y="1640" />
            </Array>
          </mxGeometry>
        </mxCell>
        <mxCell id="XIgQ0OOqWxFMapGrbs6A-24" value="Pelea" style="rounded=1;whiteSpace=wrap;html=1;" parent="WIyWlLk6GJQsqaUBKTNV-1" vertex="1">
          <mxGeometry x="143.51" y="1550" width="80" height="40" as="geometry" />
        </mxCell>
        <mxCell id="XIgQ0OOqWxFMapGrbs6A-30" style="edgeStyle=orthogonalEdgeStyle;rounded=0;orthogonalLoop=1;jettySize=auto;html=1;entryX=1;entryY=0.5;entryDx=0;entryDy=0;" parent="WIyWlLk6GJQsqaUBKTNV-1" source="XIgQ0OOqWxFMapGrbs6A-27" target="XIgQ0OOqWxFMapGrbs6A-28" edge="1">
          <mxGeometry relative="1" as="geometry">
            <Array as="points">
              <mxPoint x="410" y="1760" />
            </Array>
          </mxGeometry>
        </mxCell>
        <mxCell id="XIgQ0OOqWxFMapGrbs6A-27" value="Pelea" style="rounded=1;whiteSpace=wrap;html=1;" parent="WIyWlLk6GJQsqaUBKTNV-1" vertex="1">
          <mxGeometry x="367.5" y="1680" width="80" height="40" as="geometry" />
        </mxCell>
        <mxCell id="XIgQ0OOqWxFMapGrbs6A-31" style="edgeStyle=orthogonalEdgeStyle;rounded=0;orthogonalLoop=1;jettySize=auto;html=1;entryX=0.5;entryY=0;entryDx=0;entryDy=0;" parent="WIyWlLk6GJQsqaUBKTNV-1" source="XIgQ0OOqWxFMapGrbs6A-28" target="_oAQgHQ9doe4E5g8mVp9-163" edge="1">
          <mxGeometry relative="1" as="geometry" />
        </mxCell>
        <mxCell id="XIgQ0OOqWxFMapGrbs6A-28" value="Escenario 9:&lt;div&gt;Templo de Ammet&lt;/div&gt;" style="rounded=1;whiteSpace=wrap;html=1;" parent="WIyWlLk6GJQsqaUBKTNV-1" vertex="1">
          <mxGeometry x="235" y="1730" width="120" height="60" as="geometry" />
        </mxCell>
        <mxCell id="vRXhc2d17sExE2w-US0Y-2" style="edgeStyle=orthogonalEdgeStyle;rounded=0;orthogonalLoop=1;jettySize=auto;html=1;entryX=0.874;entryY=0.023;entryDx=0;entryDy=0;entryPerimeter=0;" edge="1" parent="WIyWlLk6GJQsqaUBKTNV-1" source="WIyWlLk6GJQsqaUBKTNV-7" target="_oAQgHQ9doe4E5g8mVp9-2">
          <mxGeometry relative="1" as="geometry" />
        </mxCell>
        <mxCell id="vRXhc2d17sExE2w-US0Y-4" style="edgeStyle=orthogonalEdgeStyle;rounded=0;orthogonalLoop=1;jettySize=auto;html=1;exitX=0.5;exitY=1;exitDx=0;exitDy=0;" edge="1" parent="WIyWlLk6GJQsqaUBKTNV-1" source="_oAQgHQ9doe4E5g8mVp9-9" target="_oAQgHQ9doe4E5g8mVp9-9">
          <mxGeometry relative="1" as="geometry" />
        </mxCell>
        <mxCell id="vRXhc2d17sExE2w-US0Y-12" style="edgeStyle=orthogonalEdgeStyle;rounded=0;orthogonalLoop=1;jettySize=auto;html=1;entryX=0.519;entryY=0.092;entryDx=0;entryDy=0;entryPerimeter=0;" edge="1" parent="WIyWlLk6GJQsqaUBKTNV-1" source="MtcDqFp95zHoMJTxopEI-46" target="MtcDqFp95zHoMJTxopEI-85">
          <mxGeometry relative="1" as="geometry" />
        </mxCell>
      </root>
    </mxGraphModel>
  </diagram>
</mxfile>
